<svg xmlns="http://www.w3.org/2000/svg" viewBox="0 0 16 16"><defs><style>.cls-1{fill:#000931;}.cls-2{fill:#fff;}</style></defs><g id="Logo"><rect class="cls-1" width="16" height="16" rx="8"/><path class="cls-2" d="M6.92,8.45h.81a.21.21,0,0,1,.21.25l-.3,1.73a.21.21,0,0,0,.21.25h.59a.21.21,0,0,0,.21-.17l.42-2.42a.22.22,0,0,1,.41,0l1,2.49a.22.22,0,0,0,.12.13.21.21,0,0,0,.24-.07l1.92-2.54a.21.21,0,0,1,.37.16l-.39,2.21a.22.22,0,0,0,.21.25h.6a.2.2,0,0,0,.2-.17l.88-5a.21.21,0,0,0-.21-.24h-.67a.23.23,0,0,0-.17.08L11.2,8.55a.21.21,0,0,1-.36-.05L9.62,5.44a.22.22,0,0,0-.2-.13h-.7a.21.21,0,0,0-.21.17L8.19,7.31A.21.21,0,0,1,8,7.48H6.58a.15.15,0,0,1-.15-.16l.31-1.75a.2.2,0,0,0-.2-.25H4A1.86,1.86,0,0,0,2.13,6.91,1.28,1.28,0,0,0,3.42,8.35.53.53,0,0,1,3.91,9a.81.81,0,0,1-.7.67H1.75a.23.23,0,0,0-.21.16l-.16.59a.2.2,0,0,0,.2.26H3A2,2,0,0,0,5,9,1.3,1.3,0,0,0,3.69,7.44a.43.43,0,0,1-.44-.53.68.68,0,0,1,.65-.6H5.34a.2.2,0,0,1,.2.25l-.68,3.89a.21.21,0,0,0,.21.24h.59a.21.21,0,0,0,.21-.17l.34-1.95a.15.15,0,0,1,.14-.12Z"/></g></svg>