<svg width="405" height="218" viewBox="0 0 405 218" fill="none" xmlns="http://www.w3.org/2000/svg">
<path d="M164.561 93.2599H188.677C189.591 93.2604 190.495 93.461 191.324 93.8479C192.153 94.2348 192.887 94.7984 193.475 95.4992C194.062 96.2001 194.49 97.0211 194.726 97.9047C194.963 98.7882 195.003 99.7129 194.845 100.614L185.782 152.034C185.623 152.935 185.663 153.86 185.9 154.743C186.137 155.627 186.564 156.448 187.152 157.149C187.74 157.849 188.474 158.413 189.303 158.8C190.132 159.187 191.035 159.388 191.95 159.388H209.505C210.978 159.387 212.403 158.868 213.531 157.921C214.659 156.974 215.418 155.66 215.673 154.21L232.5 68C232.5 68 259.741 129.876 269.951 155.288C270.281 156.148 270.792 156.926 271.449 157.571C272.107 158.215 272.895 158.711 273.761 159.024C275.016 159.462 276.378 159.49 277.65 159.104C278.923 158.718 280.039 157.938 280.839 156.876L337.522 81.6106C341.481 76.3486 349.839 79.9811 348.695 86.4664L337.139 152.02C336.98 152.921 337.021 153.846 337.257 154.729C337.494 155.613 337.921 156.434 338.509 157.135C339.097 157.835 339.831 158.399 340.66 158.786C341.489 159.173 342.392 159.373 343.307 159.374H360.914C362.387 159.373 363.813 158.853 364.941 157.905C366.069 156.957 366.827 155.642 367.082 154.191L392.981 7.35378C393.14 6.45296 393.1 5.5283 392.863 4.64473C392.626 3.76116 392.199 2.94013 391.611 2.23929C391.023 1.53846 390.289 0.974816 389.46 0.587961C388.632 0.201107 387.728 0.000421436 386.813 0H367.068C366.097 0.000539662 365.14 0.226439 364.271 0.659907C363.403 1.09338 362.647 1.72257 362.063 2.49795L291.532 96.0801C290.863 96.9665 289.971 97.6592 288.946 98.0875C287.922 98.5157 286.802 98.664 285.701 98.5173C284.601 98.3705 283.559 97.9339 282.682 97.2521C281.806 96.5704 281.126 95.668 280.713 94.6373L244.439 3.94069C243.974 2.77799 243.171 1.78126 242.134 1.07892C241.098 0.376576 239.874 0.000797621 238.622 0H217.844C216.372 0.000678555 214.946 0.520038 213.818 1.46692C212.691 2.4138 211.932 3.7277 211.677 5.17799L202.119 59.3765C201.863 60.8276 201.104 62.1421 199.975 63.0891C198.846 64.0361 197.42 64.5549 195.946 64.5545H154.312C153.693 64.5543 153.081 64.4185 152.52 64.1568C151.959 63.895 151.462 63.5137 151.064 63.0394C150.665 62.5651 150.376 62.0094 150.215 61.4113C150.054 60.8133 150.027 60.1873 150.134 59.5773L159.29 7.66194C159.445 6.76381 159.403 5.84259 159.166 4.96245C158.929 4.08231 158.503 3.26441 157.918 2.56572C157.332 1.86704 156.602 1.30436 155.777 0.916886C154.952 0.529414 154.052 0.326461 153.14 0.322165H77.0347C56.7242 -0.709698 26.6088 15.9495 22.612 47.419C18.4566 79.9858 47.3581 89.7721 60.833 90.3138C62.9621 90.3838 77.2821 91.8639 75.3071 109.812C73.9064 122.666 60.4221 129.889 54.4924 129.702H11.1168C9.7472 129.702 8.41535 130.151 7.32506 130.98C6.23477 131.809 5.44608 132.972 5.0797 134.292L0.228539 151.745C-0.0299733 152.675 -0.0697842 153.653 0.112219 154.601C0.294222 155.549 0.693106 156.443 1.27769 157.211C1.86227 157.98 2.6167 158.603 3.48199 159.031C4.34729 159.46 5.3 159.683 6.26564 159.682H48.8615C73.4628 159.682 104.381 141.473 108.5 109.807C114.49 63.7654 71.0116 63.4246 68.8125 63.2845C68.4576 63.2052 53.8714 63.4433 55.6971 47.4097C57.3219 33.1504 70.9602 29.6999 75.111 29.8587C91.9073 29.8587 108.704 29.8679 125.5 29.8587L103.429 152.338C103.27 153.239 103.31 154.163 103.547 155.047C103.784 155.931 104.212 156.752 104.8 157.452C105.389 158.153 106.124 158.716 106.953 159.102C107.783 159.488 108.687 159.688 109.601 159.687H127.222C128.695 159.687 130.121 159.169 131.25 158.223C132.379 157.277 133.138 155.964 133.395 154.513L143.574 96.7711C143.747 95.7887 144.261 94.8988 145.025 94.2576C145.789 93.6163 146.755 93.2648 147.752 93.2646L164.561 93.2599Z" fill="#DEDDDD"/>
<path d="M11.3281 191.578L5.45312 210H0.015625L8.4375 187.25H11.875L11.3281 191.578ZM16.2031 210L10.3125 191.578L9.70312 187.25H13.1875L21.6406 210H16.2031ZM15.9531 201.531V205.469H4.09375V201.531H15.9531ZM37.8881 204C37.8881 203.615 37.8308 203.271 37.7162 202.969C37.6017 202.656 37.3933 202.37 37.0912 202.109C36.7892 201.849 36.3621 201.589 35.81 201.328C35.2579 201.057 34.534 200.781 33.6381 200.5C32.6173 200.167 31.6433 199.792 30.7162 199.375C29.7996 198.948 28.9819 198.453 28.2631 197.891C27.5444 197.328 26.9767 196.672 26.56 195.922C26.1537 195.172 25.9506 194.297 25.9506 193.297C25.9506 192.328 26.1642 191.453 26.5912 190.672C27.0183 189.891 27.6173 189.224 28.3881 188.672C29.159 188.109 30.0652 187.682 31.1069 187.391C32.1485 187.089 33.2944 186.938 34.5444 186.938C36.211 186.938 37.6746 187.234 38.935 187.828C40.2058 188.411 41.1954 189.234 41.9037 190.297C42.6121 191.349 42.9662 192.573 42.9662 193.969H37.9037C37.9037 193.354 37.7735 192.812 37.5131 192.344C37.2631 191.865 36.8777 191.49 36.3569 191.219C35.8465 190.948 35.2058 190.812 34.435 190.812C33.685 190.812 33.0548 190.927 32.5444 191.156C32.0444 191.375 31.6642 191.677 31.4037 192.062C31.1537 192.448 31.0287 192.87 31.0287 193.328C31.0287 193.693 31.1225 194.026 31.31 194.328C31.5079 194.62 31.7892 194.896 32.1537 195.156C32.5287 195.406 32.9871 195.646 33.5287 195.875C34.0704 196.104 34.6902 196.323 35.3881 196.531C36.6069 196.917 37.685 197.344 38.6225 197.812C39.5704 198.281 40.3673 198.812 41.0131 199.406C41.659 200 42.1433 200.672 42.4662 201.422C42.7996 202.172 42.9662 203.021 42.9662 203.969C42.9662 204.979 42.7683 205.875 42.3725 206.656C41.9871 207.438 41.4246 208.104 40.685 208.656C39.9558 209.198 39.0808 209.609 38.06 209.891C37.0392 210.172 35.8985 210.312 34.6381 210.312C33.4923 210.312 32.3621 210.167 31.2475 209.875C30.1329 209.573 29.1225 209.115 28.2162 208.5C27.3204 207.885 26.6017 207.104 26.06 206.156C25.5287 205.198 25.2631 204.062 25.2631 202.75H30.3569C30.3569 203.438 30.4558 204.021 30.6537 204.5C30.8517 204.969 31.1329 205.349 31.4975 205.641C31.8725 205.932 32.3256 206.141 32.8569 206.266C33.3881 206.391 33.9819 206.453 34.6381 206.453C35.3985 206.453 36.0131 206.349 36.4819 206.141C36.961 205.922 37.3152 205.625 37.5444 205.25C37.7735 204.875 37.8881 204.458 37.8881 204ZM60.3231 204C60.3231 203.615 60.2658 203.271 60.1512 202.969C60.0367 202.656 59.8283 202.37 59.5262 202.109C59.2242 201.849 58.7971 201.589 58.245 201.328C57.6929 201.057 56.969 200.781 56.0731 200.5C55.0523 200.167 54.0783 199.792 53.1512 199.375C52.2346 198.948 51.4169 198.453 50.6981 197.891C49.9794 197.328 49.4117 196.672 48.995 195.922C48.5887 195.172 48.3856 194.297 48.3856 193.297C48.3856 192.328 48.5992 191.453 49.0262 190.672C49.4533 189.891 50.0523 189.224 50.8231 188.672C51.594 188.109 52.5002 187.682 53.5419 187.391C54.5835 187.089 55.7294 186.938 56.9794 186.938C58.646 186.938 60.1096 187.234 61.37 187.828C62.6408 188.411 63.6304 189.234 64.3387 190.297C65.0471 191.349 65.4012 192.573 65.4012 193.969H60.3387C60.3387 193.354 60.2085 192.812 59.9481 192.344C59.6981 191.865 59.3127 191.49 58.7919 191.219C58.2815 190.948 57.6408 190.812 56.87 190.812C56.12 190.812 55.4898 190.927 54.9794 191.156C54.4794 191.375 54.0992 191.677 53.8387 192.062C53.5887 192.448 53.4637 192.87 53.4637 193.328C53.4637 193.693 53.5575 194.026 53.745 194.328C53.9429 194.62 54.2242 194.896 54.5887 195.156C54.9637 195.406 55.4221 195.646 55.9637 195.875C56.5054 196.104 57.1252 196.323 57.8231 196.531C59.0419 196.917 60.12 197.344 61.0575 197.812C62.0054 198.281 62.8023 198.812 63.4481 199.406C64.094 200 64.5783 200.672 64.9012 201.422C65.2346 202.172 65.4012 203.021 65.4012 203.969C65.4012 204.979 65.2033 205.875 64.8075 206.656C64.4221 207.438 63.8596 208.104 63.12 208.656C62.3908 209.198 61.5158 209.609 60.495 209.891C59.4742 210.172 58.3335 210.312 57.0731 210.312C55.9273 210.312 54.7971 210.167 53.6825 209.875C52.5679 209.573 51.5575 209.115 50.6512 208.5C49.7554 207.885 49.0367 207.104 48.495 206.156C47.9637 205.198 47.6981 204.062 47.6981 202.75H52.7919C52.7919 203.438 52.8908 204.021 53.0887 204.5C53.2867 204.969 53.5679 205.349 53.9325 205.641C54.3075 205.932 54.7606 206.141 55.2919 206.266C55.8231 206.391 56.4169 206.453 57.0731 206.453C57.8335 206.453 58.4481 206.349 58.9169 206.141C59.396 205.922 59.7502 205.625 59.9794 205.25C60.2085 204.875 60.3231 204.458 60.3231 204ZM86.43 206.062V210H74.3206V206.062H86.43ZM76.055 187.25V210H70.9613V187.25H76.055ZM84.8675 196.406V200.219H74.3206V196.406H84.8675ZM86.4456 187.25V191.203H74.3206V187.25H86.4456ZM103.287 204C103.287 203.615 103.23 203.271 103.115 202.969C103 202.656 102.792 202.37 102.49 202.109C102.188 201.849 101.761 201.589 101.209 201.328C100.657 201.057 99.9327 200.781 99.0369 200.5C98.016 200.167 97.0421 199.792 96.115 199.375C95.1983 198.948 94.3806 198.453 93.6619 197.891C92.9431 197.328 92.3754 196.672 91.9587 195.922C91.5525 195.172 91.3494 194.297 91.3494 193.297C91.3494 192.328 91.5629 191.453 91.99 190.672C92.4171 189.891 93.016 189.224 93.7869 188.672C94.5577 188.109 95.464 187.682 96.5056 187.391C97.5473 187.089 98.6931 186.938 99.9431 186.938C101.61 186.938 103.073 187.234 104.334 187.828C105.605 188.411 106.594 189.234 107.302 190.297C108.011 191.349 108.365 192.573 108.365 193.969H103.302C103.302 193.354 103.172 192.812 102.912 192.344C102.662 191.865 102.276 191.49 101.756 191.219C101.245 190.948 100.605 190.812 99.8337 190.812C99.0837 190.812 98.4535 190.927 97.9431 191.156C97.4431 191.375 97.0629 191.677 96.8025 192.062C96.5525 192.448 96.4275 192.87 96.4275 193.328C96.4275 193.693 96.5212 194.026 96.7087 194.328C96.9067 194.62 97.1879 194.896 97.5525 195.156C97.9275 195.406 98.3858 195.646 98.9275 195.875C99.4692 196.104 100.089 196.323 100.787 196.531C102.006 196.917 103.084 197.344 104.021 197.812C104.969 198.281 105.766 198.812 106.412 199.406C107.058 200 107.542 200.672 107.865 201.422C108.198 202.172 108.365 203.021 108.365 203.969C108.365 204.979 108.167 205.875 107.771 206.656C107.386 207.438 106.823 208.104 106.084 208.656C105.355 209.198 104.48 209.609 103.459 209.891C102.438 210.172 101.297 210.312 100.037 210.312C98.891 210.312 97.7608 210.167 96.6462 209.875C95.5317 209.573 94.5212 209.115 93.615 208.5C92.7192 207.885 92.0004 207.104 91.4587 206.156C90.9275 205.198 90.6619 204.062 90.6619 202.75H95.7556C95.7556 203.438 95.8546 204.021 96.0525 204.5C96.2504 204.969 96.5317 205.349 96.8962 205.641C97.2712 205.932 97.7244 206.141 98.2556 206.266C98.7869 206.391 99.3806 206.453 100.037 206.453C100.797 206.453 101.412 206.349 101.881 206.141C102.36 205.922 102.714 205.625 102.943 205.25C103.172 204.875 103.287 204.458 103.287 204ZM125.722 204C125.722 203.615 125.665 203.271 125.55 202.969C125.435 202.656 125.227 202.37 124.925 202.109C124.623 201.849 124.196 201.589 123.644 201.328C123.092 201.057 122.368 200.781 121.472 200.5C120.451 200.167 119.477 199.792 118.55 199.375C117.633 198.948 116.816 198.453 116.097 197.891C115.378 197.328 114.81 196.672 114.394 195.922C113.988 195.172 113.784 194.297 113.784 193.297C113.784 192.328 113.998 191.453 114.425 190.672C114.852 189.891 115.451 189.224 116.222 188.672C116.993 188.109 117.899 187.682 118.941 187.391C119.982 187.089 121.128 186.938 122.378 186.938C124.045 186.938 125.508 187.234 126.769 187.828C128.04 188.411 129.029 189.234 129.738 190.297C130.446 191.349 130.8 192.573 130.8 193.969H125.738C125.738 193.354 125.607 192.812 125.347 192.344C125.097 191.865 124.711 191.49 124.191 191.219C123.68 190.948 123.04 190.812 122.269 190.812C121.519 190.812 120.889 190.927 120.378 191.156C119.878 191.375 119.498 191.677 119.238 192.062C118.988 192.448 118.863 192.87 118.863 193.328C118.863 193.693 118.956 194.026 119.144 194.328C119.342 194.62 119.623 194.896 119.988 195.156C120.363 195.406 120.821 195.646 121.363 195.875C121.904 196.104 122.524 196.323 123.222 196.531C124.441 196.917 125.519 197.344 126.456 197.812C127.404 198.281 128.201 198.812 128.847 199.406C129.493 200 129.977 200.672 130.3 201.422C130.633 202.172 130.8 203.021 130.8 203.969C130.8 204.979 130.602 205.875 130.206 206.656C129.821 207.438 129.258 208.104 128.519 208.656C127.79 209.198 126.915 209.609 125.894 209.891C124.873 210.172 123.732 210.312 122.472 210.312C121.326 210.312 120.196 210.167 119.081 209.875C117.967 209.573 116.956 209.115 116.05 208.5C115.154 207.885 114.435 207.104 113.894 206.156C113.363 205.198 113.097 204.062 113.097 202.75H118.191C118.191 203.438 118.29 204.021 118.488 204.5C118.685 204.969 118.967 205.349 119.331 205.641C119.706 205.932 120.159 206.141 120.691 206.266C121.222 206.391 121.816 206.453 122.472 206.453C123.232 206.453 123.847 206.349 124.316 206.141C124.795 205.922 125.149 205.625 125.378 205.25C125.607 204.875 125.722 204.458 125.722 204ZM155.329 198.125V199.141C155.329 200.87 155.089 202.422 154.61 203.797C154.141 205.172 153.469 206.344 152.594 207.312C151.73 208.281 150.699 209.026 149.501 209.547C148.313 210.057 146.995 210.312 145.548 210.312C144.1 210.312 142.777 210.057 141.579 209.547C140.381 209.026 139.339 208.281 138.454 207.312C137.579 206.344 136.902 205.172 136.423 203.797C135.943 202.422 135.704 200.87 135.704 199.141V198.125C135.704 196.396 135.943 194.844 136.423 193.469C136.902 192.083 137.574 190.906 138.438 189.938C139.313 188.969 140.35 188.229 141.548 187.719C142.745 187.198 144.068 186.938 145.516 186.938C146.964 186.938 148.287 187.198 149.485 187.719C150.683 188.229 151.714 188.969 152.579 189.938C153.454 190.906 154.131 192.083 154.61 193.469C155.089 194.844 155.329 196.396 155.329 198.125ZM150.188 199.141V198.094C150.188 196.938 150.084 195.917 149.876 195.031C149.667 194.135 149.365 193.385 148.969 192.781C148.574 192.177 148.084 191.724 147.501 191.422C146.917 191.109 146.256 190.953 145.516 190.953C144.745 190.953 144.074 191.109 143.501 191.422C142.928 191.724 142.443 192.177 142.048 192.781C141.662 193.385 141.365 194.135 141.157 195.031C140.959 195.917 140.86 196.938 140.86 198.094V199.141C140.86 200.286 140.959 201.307 141.157 202.203C141.365 203.089 141.667 203.839 142.063 204.453C142.459 205.068 142.943 205.531 143.516 205.844C144.1 206.156 144.777 206.312 145.548 206.312C146.287 206.312 146.943 206.156 147.516 205.844C148.1 205.531 148.589 205.068 148.985 204.453C149.381 203.839 149.678 203.089 149.876 202.203C150.084 201.307 150.188 200.286 150.188 199.141ZM161.014 187.25H169.748C171.488 187.25 172.993 187.51 174.264 188.031C175.545 188.552 176.529 189.323 177.217 190.344C177.904 191.365 178.248 192.625 178.248 194.125C178.248 195.375 178.045 196.438 177.639 197.312C177.232 198.188 176.66 198.911 175.92 199.484C175.191 200.057 174.337 200.521 173.357 200.875L171.701 201.781H164.264L164.232 197.828H169.764C170.524 197.828 171.154 197.693 171.654 197.422C172.154 197.151 172.529 196.771 172.779 196.281C173.04 195.781 173.17 195.198 173.17 194.531C173.17 193.844 173.04 193.25 172.779 192.75C172.519 192.25 172.134 191.87 171.623 191.609C171.123 191.339 170.498 191.203 169.748 191.203H166.107V210H161.014V187.25ZM173.607 210L168.498 199.891L173.873 199.875L179.061 209.766V210H173.607ZM189.683 187.25V210H184.605V187.25H189.683ZM206.087 191.578L200.212 210H194.774L203.196 187.25H206.634L206.087 191.578ZM210.962 210L205.071 191.578L204.462 187.25H207.946L216.399 210H210.962ZM210.712 201.531V205.469H198.852V201.531H210.712ZM234.566 197.938L239.176 195.016C239.821 194.599 240.233 194.198 240.41 193.812C240.598 193.427 240.691 193.021 240.691 192.594C240.691 192.135 240.525 191.708 240.191 191.312C239.858 190.917 239.389 190.719 238.785 190.719C238.348 190.719 237.978 190.818 237.676 191.016C237.384 191.214 237.16 191.479 237.004 191.812C236.858 192.135 236.785 192.495 236.785 192.891C236.785 193.359 236.91 193.839 237.16 194.328C237.42 194.807 237.764 195.312 238.191 195.844C238.618 196.375 239.098 196.958 239.629 197.594L250.332 210H244.848L236.113 199.984C235.384 199.068 234.749 198.224 234.207 197.453C233.665 196.682 233.243 195.938 232.941 195.219C232.639 194.49 232.488 193.74 232.488 192.969C232.488 191.771 232.749 190.719 233.269 189.812C233.79 188.906 234.519 188.198 235.457 187.688C236.405 187.177 237.519 186.922 238.801 186.922C239.999 186.922 241.035 187.167 241.91 187.656C242.785 188.146 243.462 188.797 243.941 189.609C244.42 190.422 244.66 191.312 244.66 192.281C244.66 192.979 244.53 193.635 244.269 194.25C244.009 194.854 243.65 195.411 243.191 195.922C242.743 196.422 242.228 196.88 241.644 197.297L236.535 200.906C236.233 201.208 235.999 201.51 235.832 201.812C235.676 202.115 235.566 202.411 235.504 202.703C235.441 202.995 235.41 203.292 235.41 203.594C235.41 204.167 235.53 204.677 235.769 205.125C236.009 205.562 236.342 205.906 236.769 206.156C237.196 206.406 237.681 206.531 238.223 206.531C239.066 206.531 239.884 206.344 240.676 205.969C241.478 205.594 242.191 205.062 242.816 204.375C243.441 203.688 243.936 202.87 244.301 201.922C244.676 200.964 244.863 199.911 244.863 198.766H248.988C248.988 199.964 248.868 201.104 248.629 202.188C248.389 203.26 248.004 204.255 247.473 205.172C246.941 206.078 246.228 206.88 245.332 207.578C245.28 207.62 245.186 207.688 245.051 207.781C244.926 207.875 244.832 207.943 244.769 207.984C243.728 208.776 242.665 209.365 241.582 209.75C240.509 210.135 239.285 210.328 237.91 210.328C236.389 210.328 235.071 210.052 233.957 209.5C232.853 208.948 231.999 208.188 231.394 207.219C230.79 206.25 230.488 205.141 230.488 203.891C230.488 202.995 230.66 202.214 231.004 201.547C231.358 200.87 231.842 200.245 232.457 199.672C233.071 199.089 233.775 198.51 234.566 197.938ZM284.108 197.984V207.156C283.733 207.583 283.16 208.042 282.389 208.531C281.629 209.021 280.655 209.443 279.467 209.797C278.28 210.141 276.863 210.312 275.217 210.312C273.728 210.312 272.374 210.073 271.155 209.594C269.936 209.104 268.889 208.391 268.014 207.453C267.139 206.505 266.462 205.349 265.983 203.984C265.514 202.62 265.28 201.057 265.28 199.297V197.953C265.28 196.193 265.514 194.63 265.983 193.266C266.452 191.901 267.113 190.75 267.967 189.812C268.822 188.865 269.837 188.146 271.014 187.656C272.191 187.167 273.494 186.922 274.921 186.922C276.952 186.922 278.613 187.25 279.905 187.906C281.197 188.552 282.176 189.448 282.842 190.594C283.52 191.74 283.936 193.057 284.092 194.547H279.186C279.082 193.786 278.874 193.13 278.561 192.578C278.259 192.026 277.827 191.604 277.264 191.312C276.702 191.01 275.973 190.859 275.077 190.859C274.358 190.859 273.707 191.01 273.124 191.312C272.551 191.604 272.066 192.047 271.671 192.641C271.275 193.234 270.973 193.974 270.764 194.859C270.556 195.734 270.452 196.755 270.452 197.922V199.297C270.452 200.464 270.556 201.49 270.764 202.375C270.983 203.26 271.301 204 271.717 204.594C272.134 205.177 272.66 205.62 273.296 205.922C273.941 206.224 274.691 206.375 275.546 206.375C276.212 206.375 276.775 206.323 277.233 206.219C277.691 206.104 278.066 205.964 278.358 205.797C278.65 205.62 278.869 205.458 279.014 205.312V201.531H274.967V197.984H284.108ZM305.621 206.062V210H293.512V206.062H305.621ZM295.246 187.25V210H290.152V187.25H295.246ZM304.059 196.406V200.219H293.512V196.406H304.059ZM305.637 187.25V191.203H293.512V187.25H305.637ZM322.478 204C322.478 203.615 322.421 203.271 322.306 202.969C322.192 202.656 321.983 202.37 321.681 202.109C321.379 201.849 320.952 201.589 320.4 201.328C319.848 201.057 319.124 200.781 318.228 200.5C317.207 200.167 316.233 199.792 315.306 199.375C314.39 198.948 313.572 198.453 312.853 197.891C312.134 197.328 311.567 196.672 311.15 195.922C310.744 195.172 310.541 194.297 310.541 193.297C310.541 192.328 310.754 191.453 311.181 190.672C311.608 189.891 312.207 189.224 312.978 188.672C313.749 188.109 314.655 187.682 315.697 187.391C316.739 187.089 317.884 186.938 319.134 186.938C320.801 186.938 322.265 187.234 323.525 187.828C324.796 188.411 325.785 189.234 326.494 190.297C327.202 191.349 327.556 192.573 327.556 193.969H322.494C322.494 193.354 322.364 192.812 322.103 192.344C321.853 191.865 321.468 191.49 320.947 191.219C320.436 190.948 319.796 190.812 319.025 190.812C318.275 190.812 317.645 190.927 317.134 191.156C316.634 191.375 316.254 191.677 315.994 192.062C315.744 192.448 315.619 192.87 315.619 193.328C315.619 193.693 315.712 194.026 315.9 194.328C316.098 194.62 316.379 194.896 316.744 195.156C317.119 195.406 317.577 195.646 318.119 195.875C318.66 196.104 319.28 196.323 319.978 196.531C321.197 196.917 322.275 197.344 323.212 197.812C324.16 198.281 324.957 198.812 325.603 199.406C326.249 200 326.733 200.672 327.056 201.422C327.39 202.172 327.556 203.021 327.556 203.969C327.556 204.979 327.358 205.875 326.962 206.656C326.577 207.438 326.015 208.104 325.275 208.656C324.546 209.198 323.671 209.609 322.65 209.891C321.629 210.172 320.489 210.312 319.228 210.312C318.082 210.312 316.952 210.167 315.837 209.875C314.723 209.573 313.712 209.115 312.806 208.5C311.91 207.885 311.192 207.104 310.65 206.156C310.119 205.198 309.853 204.062 309.853 202.75H314.947C314.947 203.438 315.046 204.021 315.244 204.5C315.442 204.969 315.723 205.349 316.087 205.641C316.462 205.932 316.916 206.141 317.447 206.266C317.978 206.391 318.572 206.453 319.228 206.453C319.989 206.453 320.603 206.349 321.072 206.141C321.551 205.922 321.905 205.625 322.134 205.25C322.364 204.875 322.478 204.458 322.478 204ZM343.71 187.25V210H338.632V187.25H343.71ZM350.632 187.25V191.203H331.851V187.25H350.632ZM363.379 191.578L357.504 210H352.067L360.489 187.25H363.926L363.379 191.578ZM368.254 210L362.364 191.578L361.754 187.25H365.239L373.692 210H368.254ZM368.004 201.531V205.469H356.145V201.531H368.004ZM366.114 181.172L368.864 181.344C368.864 182.104 368.707 182.802 368.395 183.438C368.093 184.073 367.671 184.583 367.129 184.969C366.598 185.344 365.989 185.531 365.301 185.531C364.812 185.531 364.385 185.469 364.02 185.344C363.655 185.208 363.317 185.052 363.004 184.875C362.692 184.688 362.374 184.526 362.051 184.391C361.728 184.255 361.364 184.188 360.957 184.188C360.624 184.188 360.332 184.312 360.082 184.562C359.843 184.812 359.723 185.177 359.723 185.656L356.942 185.5C356.942 184.76 357.093 184.073 357.395 183.438C357.697 182.792 358.114 182.276 358.645 181.891C359.187 181.505 359.806 181.312 360.504 181.312C360.921 181.312 361.306 181.38 361.661 181.516C362.025 181.641 362.374 181.792 362.707 181.969C363.051 182.146 363.395 182.302 363.739 182.438C364.082 182.573 364.447 182.641 364.832 182.641C365.176 182.641 365.473 182.516 365.723 182.266C365.984 182.016 366.114 181.651 366.114 181.172ZM396.799 198.125V199.141C396.799 200.87 396.559 202.422 396.08 203.797C395.611 205.172 394.939 206.344 394.064 207.312C393.2 208.281 392.169 209.026 390.971 209.547C389.783 210.057 388.465 210.312 387.017 210.312C385.57 210.312 384.247 210.057 383.049 209.547C381.851 209.026 380.809 208.281 379.924 207.312C379.049 206.344 378.372 205.172 377.892 203.797C377.413 202.422 377.174 200.87 377.174 199.141V198.125C377.174 196.396 377.413 194.844 377.892 193.469C378.372 192.083 379.044 190.906 379.908 189.938C380.783 188.969 381.82 188.229 383.017 187.719C384.215 187.198 385.538 186.938 386.986 186.938C388.434 186.938 389.757 187.198 390.955 187.719C392.153 188.229 393.184 188.969 394.049 189.938C394.924 190.906 395.601 192.083 396.08 193.469C396.559 194.844 396.799 196.396 396.799 198.125ZM391.658 199.141V198.094C391.658 196.938 391.554 195.917 391.346 195.031C391.137 194.135 390.835 193.385 390.439 192.781C390.044 192.177 389.554 191.724 388.971 191.422C388.387 191.109 387.726 190.953 386.986 190.953C386.215 190.953 385.544 191.109 384.971 191.422C384.398 191.724 383.913 192.177 383.517 192.781C383.132 193.385 382.835 194.135 382.627 195.031C382.429 195.917 382.33 196.938 382.33 198.094V199.141C382.33 200.286 382.429 201.307 382.627 202.203C382.835 203.089 383.137 203.839 383.533 204.453C383.929 205.068 384.413 205.531 384.986 205.844C385.57 206.156 386.247 206.312 387.017 206.312C387.757 206.312 388.413 206.156 388.986 205.844C389.57 205.531 390.059 205.068 390.455 204.453C390.851 203.839 391.148 203.089 391.346 202.203C391.554 201.307 391.658 200.286 391.658 199.141Z" fill="#DEDDDD"/>
</svg>
