<svg xmlns="http://www.w3.org/2000/svg" viewBox="0 0 841.89 444.59"><defs><style>.cls-1{fill:#dedddd;}</style></defs><g id="Logo"><path class="cls-1" d="M352.46,208.05h51.65a13.42,13.42,0,0,1,13.21,15.75L397.91,333.93a13.42,13.42,0,0,0,13.21,15.75h37.6a13.42,13.42,0,0,0,13.21-11.09l27-153.27c2.34-13.29,20.63-15.2,25.67-2.67L578.18,340.9a13.74,13.74,0,0,0,8.16,8,13.44,13.44,0,0,0,15.16-4.6l121.4-161.2c8.48-11.27,26.38-3.49,23.93,10.4l-24.75,140.4a13.42,13.42,0,0,0,13.21,15.75H773a13.42,13.42,0,0,0,13.21-11.1L841.68,24.06A13.42,13.42,0,0,0,828.47,8.31H786.18a13.43,13.43,0,0,0-10.72,5.35L624.4,214.09A13.42,13.42,0,0,1,601.23,211L523.54,16.75a13.43,13.43,0,0,0-12.46-8.44h-44.5A13.42,13.42,0,0,0,453.37,19.4L432.9,135.48a13.42,13.42,0,0,1-13.22,11.09H330.51a9.09,9.09,0,0,1-8.95-10.66L341.17,24.72A13.43,13.43,0,0,0,328,9L165,9C121.5,6.79,57,42.47,48.44,109.87c-8.9,69.75,53,90.71,81.86,91.87,4.56.15,35.23,3.32,31,41.76-3,27.53-31.88,43-44.58,42.6H23.82a13.42,13.42,0,0,0-12.93,9.83L.5,333.31a13.41,13.41,0,0,0,12.93,17h91.23c52.69,0,118.91-39,127.73-106.82,12.83-98.61-80.29-99.34-85-99.64-.76-.17-32,.34-28.09-34,3.48-30.54,32.69-37.93,41.58-37.59h90.91A13.42,13.42,0,0,1,265,88L221.53,334.58a13.41,13.41,0,0,0,13.22,15.74h37.74a13.42,13.42,0,0,0,13.22-11.08l21.8-123.67a9.09,9.09,0,0,1,8.95-7.51Z"/><path class="cls-1" d="M42.78,425.41h-14l-2.69,5.22H15.73l20.06-37.25,20,37.25H45.48Zm-3.61-7-3.38-6.53-3.44,6.53Z"/><path class="cls-1" d="M64.79,429.71a11,11,0,0,1-3.67-2.35,9.61,9.61,0,0,1-3-7.68v-.63l6.42.12h.52v.45a5.71,5.71,0,0,0,.63,2.35c.69,1.15,2.18,1.67,4.3,1.67A9,9,0,0,0,74,423c.92-.46,1-1,1-1.38,0-1.83-3.32-2.46-5.27-2.69A19,19,0,0,1,64,417.56,10.61,10.61,0,0,1,60.21,415a7.83,7.83,0,0,1-2.07-5.39,8.43,8.43,0,0,1,2.07-5.73c2.06-2.35,5.38-3.55,9.91-3.55,6,0,8.94,2.63,10.37,4.87a10.82,10.82,0,0,1,1.61,5.61v.52H75.16v-.52a3.4,3.4,0,0,0-.51-1.83c-.8-1.09-2.41-1.72-4.53-1.72-2.41,0-4.81.63-4.81,2A1.85,1.85,0,0,0,66.45,411a11,11,0,0,0,4.07,1.09c4.36.46,7.62,1.89,9.57,4.18a8.15,8.15,0,0,1,2,5.39,8.06,8.06,0,0,1-1.95,5.56,9.12,9.12,0,0,1-4,2.58,19.41,19.41,0,0,1-6.13.86A13.68,13.68,0,0,1,64.79,429.71Z"/><path class="cls-1" d="M92.24,429.71a10.93,10.93,0,0,1-3.66-2.35,9.58,9.58,0,0,1-3-7.68v-.63l6.42.12h.52v.45a5.71,5.71,0,0,0,.63,2.35c.69,1.15,2.18,1.67,4.3,1.67a9,9,0,0,0,4-.63c.92-.46,1-1,1-1.38,0-1.83-3.32-2.46-5.27-2.69a19.11,19.11,0,0,1-5.73-1.38A10.61,10.61,0,0,1,87.66,415a7.83,7.83,0,0,1-2.07-5.39,8.43,8.43,0,0,1,2.07-5.73c2.06-2.35,5.39-3.55,9.91-3.55,6,0,8.94,2.63,10.38,4.87a10.87,10.87,0,0,1,1.6,5.61v.52h-6.93v-.52a3.43,3.43,0,0,0-.52-1.83c-.8-1.09-2.41-1.72-4.53-1.72-2.4,0-4.81.63-4.81,2A1.84,1.84,0,0,0,93.91,411,10.87,10.87,0,0,0,98,412.06c4.36.46,7.63,1.89,9.57,4.18a8.15,8.15,0,0,1,2,5.39,8.06,8.06,0,0,1-2,5.56,9.12,9.12,0,0,1-4,2.58,19.41,19.41,0,0,1-6.13.86A13.68,13.68,0,0,1,92.24,429.71Z"/><path class="cls-1" d="M141.42,418.59l-21.55,0a5.74,5.74,0,0,0,1.66,2.52,7.46,7.46,0,0,0,5.16,2.12,7.57,7.57,0,0,0,5.15-2.18l.23-.23,7.45,2.35c-3.09,4.76-6.36,7.45-12.78,7.51a14.76,14.76,0,1,1,14.68-14.85C141.42,416.18,141.47,418.19,141.42,418.59Zm-19.95-7.85a7.67,7.67,0,0,0-1.55,2.41h13.47a7.71,7.71,0,0,0-1.6-2.47,7.47,7.47,0,0,0-5.16-2.06A7.27,7.27,0,0,0,121.47,410.74Z"/><path class="cls-1" d="M150.47,429.71a11,11,0,0,1-3.67-2.35,9.61,9.61,0,0,1-3-7.68v-.63l6.42.12h.52v.45a5.54,5.54,0,0,0,.63,2.35c.68,1.15,2.17,1.67,4.3,1.67a9,9,0,0,0,3.95-.63c.92-.46,1-1,1-1.38,0-1.83-3.32-2.46-5.27-2.69a19,19,0,0,1-5.73-1.38,10.61,10.61,0,0,1-3.78-2.52,7.83,7.83,0,0,1-2.07-5.39,8.43,8.43,0,0,1,2.07-5.73c2.06-2.35,5.38-3.55,9.91-3.55,6,0,8.94,2.63,10.37,4.87a10.82,10.82,0,0,1,1.61,5.61v.52h-6.94v-.52a3.4,3.4,0,0,0-.51-1.83c-.8-1.09-2.41-1.72-4.53-1.72-2.41,0-4.81.63-4.81,2a1.85,1.85,0,0,0,1.14,1.66,11,11,0,0,0,4.07,1.09c4.36.46,7.62,1.89,9.57,4.18a8.15,8.15,0,0,1,2,5.39,8.06,8.06,0,0,1-1.95,5.56,9.12,9.12,0,0,1-4,2.58,19.41,19.41,0,0,1-6.13.86A13.68,13.68,0,0,1,150.47,429.71Z"/><path class="cls-1" d="M177.92,429.71a11,11,0,0,1-3.67-2.35,9.61,9.61,0,0,1-3-7.68v-.63l6.42.12h.52v.45a5.71,5.71,0,0,0,.63,2.35c.69,1.15,2.18,1.67,4.3,1.67a9,9,0,0,0,4-.63c.92-.46,1-1,1-1.38,0-1.83-3.32-2.46-5.27-2.69a19.11,19.11,0,0,1-5.73-1.38,10.61,10.61,0,0,1-3.78-2.52,7.83,7.83,0,0,1-2.07-5.39,8.43,8.43,0,0,1,2.07-5.73c2.06-2.35,5.38-3.55,9.91-3.55,6,0,8.94,2.63,10.38,4.87a10.87,10.87,0,0,1,1.6,5.61v.52H188.3v-.52a3.43,3.43,0,0,0-.52-1.83c-.8-1.09-2.41-1.72-4.53-1.72-2.41,0-4.81.63-4.81,2a1.85,1.85,0,0,0,1.14,1.66,11,11,0,0,0,4.07,1.09c4.36.46,7.63,1.89,9.57,4.18a8.15,8.15,0,0,1,2,5.39,8.06,8.06,0,0,1-1.95,5.56,9.12,9.12,0,0,1-4,2.58,19.41,19.41,0,0,1-6.13.86A13.68,13.68,0,0,1,177.92,429.71Z"/><path class="cls-1" d="M227,415.78a14.73,14.73,0,1,1-14.79-14.67A14.74,14.74,0,0,1,227,415.78Zm-7.45.06a7.33,7.33,0,0,0-2.18-5.16,7.47,7.47,0,0,0-5.16-2.06,7.13,7.13,0,0,0-5.1,2.12,7.27,7.27,0,0,0,.06,10.32,7.25,7.25,0,0,0,5.16,2.12,7.35,7.35,0,0,0,5.1-2.18A7.27,7.27,0,0,0,219.59,415.84Z"/><path class="cls-1" d="M247.38,400.6v8.19c-6.19,0-10,5-10,8.77v13.07h-8V401.11h8v4.42C238.73,401.86,241.42,400.6,247.38,400.6Z"/><path class="cls-1" d="M257.93,397.44h-8v-6.76h8Zm.06,33.19h-8V401.17h8Z"/><path class="cls-1" d="M290.65,401v29.63h-8V427.3a9.34,9.34,0,0,1-7.45,3.21A14.76,14.76,0,1,1,275,401a9.76,9.76,0,0,1,7.62,3.27V401Zm-8.31,14.73a7.06,7.06,0,0,0-2.17-5.16,7,7,0,0,0-5.11-2.07,7.26,7.26,0,0,0-7.27,7.28,7.25,7.25,0,0,0,12.43,5.1A7.2,7.2,0,0,0,282.34,415.73Z"/><path class="cls-1" d="M338.28,420.77l4.81,4.87-4.41,4.47-4.87-4.93-1.09,1a2.8,2.8,0,0,1-.4.46,14.65,14.65,0,0,1-4.3,2.93,14.4,14.4,0,0,1-5.33,1,13.37,13.37,0,0,1-9.68-4,13.79,13.79,0,0,1-2.93-4.35,13.58,13.58,0,0,1,0-10.66A13.72,13.72,0,0,1,313,407.3a19.63,19.63,0,0,1,1.71-1.43,14,14,0,0,1-1.49-2.47,11,11,0,0,1-.8-4.07,10.78,10.78,0,0,1,.8-4,10.5,10.5,0,0,1,5.56-5.56,10.79,10.79,0,0,1,4-.8,11,11,0,0,1,4.06.8,11.87,11.87,0,0,1,3.27,2.24,9.94,9.94,0,0,1,2.24,3.32,10.78,10.78,0,0,1,.8,4,11,11,0,0,1-.8,4.07,10.79,10.79,0,0,1-5.51,5.51c-.11,0-.22,0-.34.11l7.28,7.28,6.42-6.36,4.47,4.47Zm-15.59,3.5a7.3,7.3,0,0,0,6.42-3.79l-9.92-9.91a7.2,7.2,0,0,0-3.84,6.42A7.31,7.31,0,0,0,322.69,424.27Zm-3.9-24.94a4.08,4.08,0,0,0,3.5,4h.52a4,4,0,1,0-4-4Z"/><path class="cls-1" d="M386,417.9l8,12.73H384l-7.79-11.87H372v11.87H363V393.38h17.82c9.17,0,13.3,7,13.3,12.72A12.37,12.37,0,0,1,386,417.9Zm-14-7.16h8.83a7.13,7.13,0,0,0,2.92-.52,4.52,4.52,0,0,0,1.31-1,5.18,5.18,0,0,0,1.09-3.15,4.77,4.77,0,0,0-1.2-3.21c-.86-1-2.18-1.49-4.07-1.49H372Z"/><path class="cls-1" d="M426,418.59l-21.55,0a5.76,5.76,0,0,0,1.67,2.52,7.44,7.44,0,0,0,5.15,2.12,7.57,7.57,0,0,0,5.16-2.18l.23-.23,7.45,2.35c-3.09,4.76-6.36,7.45-12.78,7.51A14.76,14.76,0,1,1,426,415.78C426,416.18,426.08,418.19,426,418.59Zm-19.94-7.85a7.5,7.5,0,0,0-1.55,2.41H418a7.71,7.71,0,0,0-1.6-2.47,7.47,7.47,0,0,0-5.16-2.06A7.25,7.25,0,0,0,406.08,410.74Z"/><path class="cls-1" d="M458.57,415.78a14.78,14.78,0,0,1-14.67,14.85,9.36,9.36,0,0,1-7.51-3.15v14.15h-8V401.17h8v3.1c1.55-2,4.65-3.1,7.34-3.16A14.77,14.77,0,0,1,458.57,415.78Zm-7.5.06a7.24,7.24,0,0,0-2.13-5.16,7.43,7.43,0,0,0-5.15-2.06,7.24,7.24,0,0,0-7.28,7.28,7.54,7.54,0,0,0,2.18,5.16,7.25,7.25,0,0,0,5.15,2.12A7.57,7.57,0,0,0,449,421,7,7,0,0,0,451.07,415.84Z"/><path class="cls-1" d="M479.21,400.6v8.19c-6.19,0-10,5-10,8.77v13.07h-8V401.11h8v4.42C470.55,401.86,473.25,400.6,479.21,400.6Z"/><path class="cls-1" d="M508.84,418.59l-21.55,0a5.74,5.74,0,0,0,1.66,2.52,7.46,7.46,0,0,0,5.16,2.12,7.59,7.59,0,0,0,5.16-2.18l.23-.23,7.45,2.35c-3.1,4.76-6.37,7.45-12.78,7.51a14.76,14.76,0,1,1,14.67-14.85C508.84,416.18,508.89,418.19,508.84,418.59Zm-19.95-7.85a7.47,7.47,0,0,0-1.54,2.41h13.46a7,7,0,0,0-6.76-4.53A7.27,7.27,0,0,0,488.89,410.74Z"/><path class="cls-1" d="M517.89,429.71a11.06,11.06,0,0,1-3.67-2.35,9.61,9.61,0,0,1-3-7.68v-.63l6.42.12h.52v.45a5.71,5.71,0,0,0,.63,2.35c.69,1.15,2.18,1.67,4.3,1.67a9,9,0,0,0,3.95-.63c.92-.46,1-1,1-1.38,0-1.83-3.32-2.46-5.27-2.69a19.11,19.11,0,0,1-5.73-1.38,10.61,10.61,0,0,1-3.78-2.52,7.83,7.83,0,0,1-2.07-5.39,8.43,8.43,0,0,1,2.07-5.73c2.06-2.35,5.38-3.55,9.91-3.55,6,0,8.94,2.63,10.37,4.87a10.82,10.82,0,0,1,1.61,5.61v.52h-6.94v-.52a3.4,3.4,0,0,0-.51-1.83c-.8-1.09-2.41-1.72-4.53-1.72-2.4,0-4.81.63-4.81,2a1.85,1.85,0,0,0,1.14,1.66,11,11,0,0,0,4.07,1.09c4.36.46,7.63,1.89,9.57,4.18a8.15,8.15,0,0,1,2,5.39,8.06,8.06,0,0,1-2,5.56,9.12,9.12,0,0,1-4,2.58,19.41,19.41,0,0,1-6.13.86A13.68,13.68,0,0,1,517.89,429.71Z"/><path class="cls-1" d="M567.06,418.59l-21.54,0a5.74,5.74,0,0,0,1.66,2.52,7.44,7.44,0,0,0,5.16,2.12,7.57,7.57,0,0,0,5.15-2.18l.23-.23,7.45,2.35c-3.09,4.76-6.36,7.45-12.78,7.51a14.76,14.76,0,1,1,14.67-14.85C567.06,416.18,567.12,418.19,567.06,418.59Zm-19.94-7.85a7.67,7.67,0,0,0-1.55,2.41H559a7.71,7.71,0,0,0-1.6-2.47,7.47,7.47,0,0,0-5.16-2.06A7.27,7.27,0,0,0,547.12,410.74Z"/><path class="cls-1" d="M598.93,415.9v14.73h-7.45V416.07h-.06V416a7.24,7.24,0,0,0-7.27-7.28,7.56,7.56,0,0,0-5.16,2.17,7,7,0,0,0-2.07,5.16v.06h0v14.56h-8V401h8v3.84a9.2,9.2,0,0,1,7.22-3.61C592.17,400.54,598.93,405.75,598.93,415.9Z"/><path class="cls-1" d="M620.71,409.14h-6.59v21.49h-8V409.14h-6.65v-8h6.65V390.8h8v10.31h6.59Z"/><path class="cls-1" d="M651.71,401v29.63h-8V427.3a9.34,9.34,0,0,1-7.45,3.21,14.76,14.76,0,0,1-.17-29.51,9.76,9.76,0,0,1,7.62,3.27V401Zm-8.31,14.73a7.06,7.06,0,0,0-2.17-5.16,7,7,0,0,0-5.11-2.07,7.26,7.26,0,0,0-7.27,7.28,7.25,7.25,0,0,0,12.43,5.1A7.2,7.2,0,0,0,643.4,415.73Z"/><path class="cls-1" d="M679.63,427.19a15.08,15.08,0,0,1-7.57,3.44l2.18,4.75h-4.07L668,430.63a14.74,14.74,0,1,1,11.69-25.73l-5.33,5.32a7,7,0,0,0-4.35-1.48,7.22,7.22,0,0,0-7.28,7.22,7,7,0,0,0,2.06,5.15,7.26,7.26,0,0,0,9.51.75Z"/><path class="cls-1" d="M712.64,415.78a14.73,14.73,0,1,1-14.79-14.67A14.74,14.74,0,0,1,712.64,415.78Zm-5.73-25.15v6.87H688.8v-6.87Zm-1.72,25.21a7.33,7.33,0,0,0-2.18-5.16,7.47,7.47,0,0,0-5.16-2.06,7.11,7.11,0,0,0-5.1,2.12,7.28,7.28,0,1,0,12.44,5.1Z"/><path class="cls-1" d="M744.56,418.59l-21.55,0a5.74,5.74,0,0,0,1.66,2.52,7.46,7.46,0,0,0,5.16,2.12A7.59,7.59,0,0,0,735,421c0-.06.17-.17.23-.23l7.45,2.35c-3.1,4.76-6.37,7.45-12.78,7.51a14.76,14.76,0,1,1,14.67-14.85C744.56,416.18,744.61,418.19,744.56,418.59Zm-19.95-7.85a7.47,7.47,0,0,0-1.54,2.41h13.47a7.74,7.74,0,0,0-1.61-2.47,7.47,7.47,0,0,0-5.16-2.06A7.27,7.27,0,0,0,724.61,410.74Z"/><path class="cls-1" d="M753.61,429.71a10.93,10.93,0,0,1-3.66-2.35,9.57,9.57,0,0,1-3-7.68v-.63l6.42.12h.51v.45a5.71,5.71,0,0,0,.63,2.35c.69,1.15,2.18,1.67,4.3,1.67a8.94,8.94,0,0,0,3.95-.63c.92-.46,1-1,1-1.38,0-1.83-3.33-2.46-5.28-2.69a19.11,19.11,0,0,1-5.73-1.38A10.8,10.8,0,0,1,749,415a7.82,7.82,0,0,1-2.06-5.39,8.48,8.48,0,0,1,2.06-5.73c2.06-2.35,5.39-3.55,9.92-3.55,6,0,8.93,2.63,10.37,4.87a10.87,10.87,0,0,1,1.6,5.61v.52H764v-.52a3.43,3.43,0,0,0-.52-1.83c-.8-1.09-2.4-1.72-4.52-1.72-2.41,0-4.82.63-4.82,2a1.86,1.86,0,0,0,1.15,1.66,10.92,10.92,0,0,0,4.06,1.09c4.36.46,7.63,1.89,9.58,4.18a8.2,8.2,0,0,1,2,5.39,8.06,8.06,0,0,1-1.95,5.56,9.12,9.12,0,0,1-4,2.58,19.36,19.36,0,0,1-6.13.86A13.68,13.68,0,0,1,753.61,429.71Z"/></g></svg>