<svg xmlns="http://www.w3.org/2000/svg" viewBox="0 0 10.49 10.49">
    <defs>
        <style>.cls-1{fill:#dedddd;;}</style>
    </defs>
    <path class="cls-1" d="M10.05,7.61c.1.15.38.59.09.87L8.82,9.75a.79.79,0,0,1-.58.21c-1,0-2.94-1.25-4.88-3.11A17.26,17.26,0,0,1,.76,3.78C.09,2.71,0,2,.34,1.6L1.66.33A.48.48,0,0,1,2,.21c.5,0,1.27.7,1.49.92s1,1,1,1.44a.42.42,0,0,1-.12.3l-.67.63c-.12.13.13,1,1.17,2A3.69,3.69,0,0,0,6.72,6.59a.22.22,0,0,0,.12,0l.66-.63a.39.39,0,0,1,.31-.12c.5,0,1.27.7,1.5.92A4.9,4.9,0,0,1,10.05,7.61Z"/>
</svg>