<svg xmlns="http://www.w3.org/2000/svg" viewBox="0 0 10.49 10.49">
    <defs>
        <style>.cls-1{fill:#dedddd;fill-rule:evenodd;}</style>
    </defs>
    <path class="cls-1" d="M10.27,5.11A4.94,4.94,0,0,1,3,9.4l-2.73.87.89-2.63A4.84,4.84,0,0,1,.4,5.11a4.94,4.94,0,0,1,9.87,0ZM5.34,1A4.14,4.14,0,0,0,1.19,5.11,4.07,4.07,0,0,0,2,7.53L1.46,9.05l1.59-.5A4.15,4.15,0,0,0,9.48,5.11,4.14,4.14,0,0,0,5.34,1ZM7.83,6.24s-.12-.08-.24-.14-.71-.35-.82-.39-.19-.06-.27.06-.32.39-.39.47-.14.09-.26,0a3.2,3.2,0,0,1-1-.59,3.6,3.6,0,0,1-.67-.83.18.18,0,0,1,0-.25l.18-.21a.82.82,0,0,0,.12-.2.22.22,0,0,0,0-.21c0-.06-.27-.65-.37-.89s-.2-.23-.27-.23l-.2,0A.7.7,0,0,0,3.35,3a1.34,1.34,0,0,0-.42,1,2.33,2.33,0,0,0,.49,1.24A5,5,0,0,0,5.49,7.08c1.23.48,1.23.32,1.45.3a1.25,1.25,0,0,0,.82-.57,1,1,0,0,0,.07-.57Zm0,0"/>
</svg>